<?xml version="1.0" encoding="iso-8859-1"?>
<!-- Generator: Adobe Illustrator 16.0.0, SVG Export Plug-In . SVG Version: 6.00 Build 0)  -->
<!DOCTYPE svg PUBLIC "-//W3C//DTD SVG 1.1//EN" "http://www.w3.org/Graphics/SVG/1.1/DTD/svg11.dtd">
<svg version="1.1" id="Capa_1" xmlns="http://www.w3.org/2000/svg" xmlns:xlink="http://www.w3.org/1999/xlink" x="0px" y="0px"
	 width="479.921px" height="479.922px" viewBox="0 0 479.921 479.922" style="enable-background:new 0 0 479.921 479.922;"
	 xml:space="preserve">
<g>
	<g>
		<path d="M476.176,120.352c-8.399-14.591-19.078-29.297-31.646-43.523c-3.91-4.436-9.414-5.309-14.426-2.584l-0.655,0.243
			c-2.062,0.475-3.885,1.493-5.561,3.11c-26.73,25.781-56.614,38.318-91.353,38.318c-36.141,0-72.717-12.989-111.441-26.743
			l-11.342-4.014c-32.956-11.596-62.121-17.232-89.177-17.232c-43.684,0-81.436,14.782-115.405,45.196
			c-1.909,1.707-3.168,3.712-3.755,5.964l-0.193,0.51c-1.643,3.301-1.623,6.941,0.053,10.534
			c5.558,11.908,11.621,24.674,18.291,37.346l0.198,0.498c1.315,4.608,5.342,9.569,11.093,9.569c1.922,0,3.91-0.563,5.896-1.681
			l1.45-0.77c29.864-16.412,62.129-24.361,98.747-24.361c40.273,0,81.601,9.615,121.569,18.913
			c8.987,2.089,17.976,4.179,26.989,6.177c21.236,4.705,41.599,7.086,60.515,7.086c47.804,0,90.134-14.881,129.412-45.504
			c2.676-2.079,4.169-4.56,4.438-7.363c0.29-2.973-0.873-6.208-3.188-8.876L476.176,120.352z M447.856,126.778
			c-30.117,20.477-61.682,30.019-99.355,30.019c-36.698,0-74.596-9.194-111.246-18.085c-36.82-8.932-68.862-13.274-97.954-13.274
			c-36.95,0-69.548,6.853-99.655,20.944l-2.293,1.076l-1.135-2.272c-2.714-5.438-5.388-10.905-7.993-16.401l-0.874-1.852
			l1.597-1.282c26.898-21.7,56.231-32.25,89.687-32.25c39.291,0,79.089,14.122,121.229,29.082l4.197,1.487
			c32.737,11.606,61.296,17.248,87.301,17.248c38.13,0,70.894-12.103,100.168-37.011l2.041-1.737l1.676,2.09
			c4.418,5.522,8.78,11.621,13.335,18.641l1.381,2.133L447.856,126.778z"/>
		<path d="M476.171,234.878c-8.395-14.581-19.073-29.285-31.642-43.513c-3.91-4.43-9.389-5.299-14.432-2.584l-0.649,0.246
			c-2.062,0.478-3.89,1.496-5.561,3.107c-26.73,25.781-56.614,38.319-91.353,38.319c-36.141,0-72.717-12.99-111.441-26.743
			l-11.342-4.014c-32.951-11.591-62.121-17.227-89.177-17.227c-43.684,0-81.436,14.782-115.405,45.197
			c-1.909,1.706-3.168,3.709-3.755,5.964l-0.198,0.51c-1.643,3.303-1.623,6.942,0.053,10.542
			c5.553,11.893,11.616,24.648,18.291,37.344l0.198,0.498c1.315,4.61,5.342,9.566,11.093,9.566c1.922,0,3.91-0.559,5.896-1.676
			l1.45-0.762c29.864-16.412,62.129-24.374,98.746-24.374c40.273,0,81.596,9.623,121.564,18.915
			c8.988,2.088,17.981,4.189,26.995,6.181c21.236,4.702,41.599,7.089,60.514,7.089c47.805,0,90.135-14.889,129.413-45.509
			c2.676-2.082,4.169-4.565,4.438-7.363c0.29-2.976-0.873-6.208-3.188-8.874L476.171,234.878z M447.856,241.314
			c-30.117,20.479-61.682,30.016-99.355,30.016c-36.698,0-74.596-9.19-111.246-18.077c-36.82-8.938-68.862-13.279-97.954-13.279
			c-36.95,0-69.548,6.851-99.655,20.947l-2.293,1.066l-1.135-2.271c-2.714-5.443-5.388-10.902-7.993-16.396l-0.874-1.854
			l1.597-1.285c26.898-21.7,56.231-32.25,89.687-32.25c39.296,0,79.095,14.13,121.234,29.089l4.192,1.485
			c32.737,11.608,61.296,17.25,87.301,17.25c38.13,0,70.894-12.11,100.168-37.013l2.041-1.737l1.676,2.09
			c4.418,5.522,8.78,11.624,13.335,18.641l1.381,2.13L447.856,241.314z"/>
		<path d="M476.171,349.409c-8.39-14.574-19.068-29.279-31.642-43.508c-3.91-4.438-9.398-5.297-14.432-2.58l-0.649,0.244
			c-2.062,0.478-3.89,1.493-5.561,3.112c-26.73,25.781-56.614,38.313-91.353,38.313c-36.135,0-72.712-12.989-111.437-26.74
			l-11.347-4.012c-32.951-11.588-62.121-17.229-89.177-17.229c-43.684,0-81.436,14.782-115.412,45.194
			c-1.902,1.7-3.161,3.717-3.748,5.966l-0.193,0.508c-1.643,3.301-1.623,6.947,0.053,10.532
			c5.547,11.888,11.605,24.644,18.291,37.354l0.198,0.497c1.315,4.611,5.347,9.567,11.098,9.567c1.922,0,3.905-0.559,5.891-1.676
			l1.348-0.721c29.976-16.469,62.236-24.415,98.853-24.415c40.278,0,81.605,9.617,121.574,18.91
			c8.983,2.092,17.977,4.185,26.984,6.185c21.236,4.697,41.599,7.084,60.52,7.084c47.799,0.005,90.129-14.884,129.407-45.504
			c2.676-2.082,4.169-4.56,4.438-7.362c0.289-2.966-0.874-6.206-3.189-8.872L476.171,349.409z M447.856,355.854
			c-30.112,20.479-61.682,30.016-99.351,30.016c-36.688,0-74.595-9.196-111.25-18.083c-36.82-8.932-68.862-13.278-97.954-13.278
			c-36.95,0-69.548,6.85-99.655,20.951l-2.293,1.066l-1.135-2.274c-2.714-5.443-5.388-10.897-7.993-16.397l-0.874-1.843l1.597-1.29
			c26.898-21.693,56.231-32.245,89.687-32.245c39.296,0,79.095,14.132,121.234,29.087l4.192,1.482
			c32.743,11.608,61.296,17.255,87.301,17.255c38.13,0,70.898-12.105,100.168-37.019l2.041-1.736l1.676,2.092
			c4.418,5.525,8.78,11.624,13.335,18.646l1.381,2.133L447.856,355.854z"/>
	</g>
</g>
<g>
</g>
<g>
</g>
<g>
</g>
<g>
</g>
<g>
</g>
<g>
</g>
<g>
</g>
<g>
</g>
<g>
</g>
<g>
</g>
<g>
</g>
<g>
</g>
<g>
</g>
<g>
</g>
<g>
</g>
</svg>
