<?xml version="1.0" encoding="iso-8859-1"?>
<!-- Generator: Adobe Illustrator 19.0.0, SVG Export Plug-In . SVG Version: 6.00 Build 0)  -->
<svg version="1.1" id="Layer_1" xmlns="http://www.w3.org/2000/svg" xmlns:xlink="http://www.w3.org/1999/xlink" x="0px" y="0px"
	 viewBox="0 0 512 512" style="enable-background:new 0 0 512 512;" xml:space="preserve">
<g>
	<g>
		<path d="M435.078,209.327L140.047,9.81c-17.57-11.883-39.249-13.04-57.984-3.092c-18.737,9.948-29.922,28.551-29.922,49.764
			v399.034c0,21.213,11.186,39.816,29.922,49.764C90.52,509.772,99.577,512,108.585,512c10.948,0,21.824-3.292,31.463-9.81
			l295.03-199.516c15.517-10.494,24.781-27.941,24.781-46.673S450.595,219.821,435.078,209.327z M423.654,285.78L128.624,485.297
			c-11.212,7.582-25.043,8.322-36.997,1.973c-11.956-6.347-19.092-18.218-19.092-31.753V56.484c0-13.535,7.137-25.405,19.092-31.753
			c5.396-2.865,11.175-4.287,16.923-4.287c6.985,0,13.924,2.099,20.075,6.259l295.03,199.517
			c10.049,6.795,15.811,17.65,15.811,29.78C439.466,268.13,433.702,278.985,423.654,285.78z"/>
	</g>
</g>
<g>
	<g>
		<path d="M363.689,201.673l-16.555-11.219c-4.663-3.158-11.001-1.942-14.162,2.72c-3.16,4.662-1.94,11.002,2.721,14.161
			l16.555,11.22c1.754,1.188,3.742,1.757,5.712,1.757c3.268,0,6.478-1.568,8.45-4.477
			C369.57,211.172,368.35,204.832,363.689,201.673z"/>
	</g>
</g>
<g>
	<g>
		<path d="M315.764,169.195L116.927,34.445c-4.663-3.158-11.001-1.941-14.162,2.721c-3.16,4.662-1.94,11.001,2.721,14.161
			l198.837,134.75c1.754,1.188,3.742,1.757,5.712,1.757c3.268,0,6.478-1.568,8.45-4.477
			C321.645,178.694,320.425,172.355,315.764,169.195z"/>
	</g>
</g>
<g>
</g>
<g>
</g>
<g>
</g>
<g>
</g>
<g>
</g>
<g>
</g>
<g>
</g>
<g>
</g>
<g>
</g>
<g>
</g>
<g>
</g>
<g>
</g>
<g>
</g>
<g>
</g>
<g>
</g>
</svg>
